<?xml version="1.0" encoding="iso-8859-1"?>
<!-- Generator: Adobe Illustrator 16.0.0, SVG Export Plug-In . SVG Version: 6.00 Build 0)  -->
<!DOCTYPE svg PUBLIC "-//W3C//DTD SVG 1.1//EN" "http://www.w3.org/Graphics/SVG/1.1/DTD/svg11.dtd">
<svg version="1.1" id="Capa_1" xmlns="http://www.w3.org/2000/svg" xmlns:xlink="http://www.w3.org/1999/xlink" x="0px" y="0px"
	 width="300px" height="300px" viewBox="0 0 300 300" style="enable-background:new 0 0 300 300;" xml:space="preserve">
<circle style="fill:none;" cx="150" cy="150" r="150"/>
<g>
	<path style="fill-rule:evenodd;clip-rule:evenodd;fill:#FFFFFF;" d="M156.59,227.123c0,7.759,0.02,15.518-0.014,23.277
		c-0.008,1.822-0.033,3.652-1.465,5.139c-1.943,2.014-4.203,2.816-6.91,2.079c-2.83-0.771-4.535-2.604-4.802-5.583
		c-0.178-1.986-0.341-3.983-0.345-5.976c-0.029-13.438-0.016-26.876-0.011-40.314c0.001-0.719-0.002-1.443,0.079-2.155
		c0.08-0.711,0.41-1.543-0.538-1.823c-0.782-0.23-0.969,0.581-1.343,1.086c-3.109,4.206-6.278,8.367-9.375,12.583
		c-2.107,2.869-6.598,3.316-9.445,1.165c-3.011-2.275-3.504-6.492-1.23-9.633c4.696-6.49,9.36-13.005,14.123-19.446
		c1.595-2.157,3.278-4.27,5.241-6.127c3.177-3.005,10.2-4.129,14.22-2.449c3.648,1.524,6.322,4.064,8.594,7.216
		c2.313,3.208,4.852,6.251,7.221,9.419c2.945,3.938,5.898,7.878,8.693,11.922c1.883,2.723,1.066,7.294-1.523,9.06
		c-3.078,2.1-7.061,1.92-9.465-1.146c-3.129-3.989-6.133-8.075-9.191-12.12c-0.145-0.19-0.303-0.373-0.436-0.571
		c-0.41-0.606-0.936-1.304-1.672-1.067s-0.381,1.125-0.383,1.709c-0.027,7.919-0.018,15.838-0.018,23.757
		C156.594,227.123,156.592,227.123,156.59,227.123z"/>
	<path style="fill-rule:evenodd;clip-rule:evenodd;fill:#FFFFFF;" d="M43.957,118.196c5.604,0.113,13.041-0.13,20.467,0.319
		c4.649,0.282,9.218,1.271,13.457,3.048c6.804,2.852,10.901,8.018,11.41,15.631c0.237,3.55-0.071,7.061-1.376,10.371
		c-1.312,3.329-3.574,5.953-6.619,7.915c-4.007,2.582-8.481,3.417-13.112,4.034c-4.775,0.637-9.549,0.874-14.338,0.763
		c-9.512-0.221-19.023-0.042-28.535-0.109c-1.997-0.014-3.995,0.146-5.99,0.112c-2.158-0.036-2.642-0.598-2.636-2.761
		c0.01-3.038,0.008-6.076,0.05-9.113c0.024-1.718,0.375-2.071,2.088-2.229c0.553-0.051,1.12-0.02,1.675,0.031
		c2.307,0.212,2.58,0.501,2.643,2.765c0.033,1.198-0.016,2.401,0.073,3.596c0.141,1.884,0.597,2.303,2.52,2.488
		c0.476,0.046,0.958,0.044,1.438,0.043c9.992-0.025,19.986,0.034,29.977-0.124c4.065-0.063,8.151-0.411,12.176-0.989
		c2.885-0.414,5.753-1.289,8.162-3.092c2.488-1.861,4.256-4.18,4.839-7.382c0.751-4.122,0.618-8.098-1.377-11.84
		c-1.84-3.452-5.024-5.247-8.63-6.222c-5.816-1.573-11.785-2.053-17.8-2.048c-11.272,0.01-22.545,0.003-33.817,0.003
		c-0.561,0-1.12-0.002-1.68-0.002c-0.913-0.001-1.869-0.083-2.113-1.14c-0.268-1.157-0.469-2.405,0.24-3.483
		c0.426-0.648,1.223-0.69,1.958-0.679c1.678,0.026,3.356,0.085,5.034,0.088C30.136,118.203,36.132,118.196,43.957,118.196z"/>
	<path style="fill-rule:evenodd;clip-rule:evenodd;fill:#FFFFFF;" d="M283.332,139.041c0,5.838,0.002,11.675-0.002,17.513
		c0,0.639,0.045,1.289-0.053,1.915c-0.207,1.328-0.721,1.776-2.082,1.806c-2.117,0.045-4.109-0.489-5.943-1.532
		c-2.684-1.526-5.346-3.093-8.008-4.661c-4.363-2.573-8.691-5.207-13.049-7.79c-3.064-1.817-6.109-3.692-9.16-5.534
		c-3.051-1.844-6.174-3.592-9.229-5.438c-5.174-3.127-10.508-5.985-15.563-9.312c-0.793-0.523-1.252-0.22-1.318,0.806
		c-0.031,0.478-0.004,0.959-0.004,1.439c0.021,9.515,0.043,19.031,0.064,28.546c0,0.479,0.018,0.961-0.012,1.438
		c-0.102,1.64-0.377,1.929-2.004,2.022c-0.555,0.032-1.119-0.007-1.674-0.073c-2.051-0.246-2.465-0.664-2.504-2.723
		c-0.045-2.479-0.014-4.958-0.021-7.437c-0.025-9.675-0.049-19.35-0.08-29.024c-0.01-2.516,0.406-2.924,2.924-2.851
		c1.873,0.055,3.49,0.595,5.111,1.668c3.029,2.007,6.287,3.667,9.422,5.519c5.373,3.176,10.713,6.409,16.09,9.58
		c3.277,1.933,6.609,3.77,9.889,5.697c2.793,1.642,5.535,3.368,8.318,5.027c3.605,2.15,7.229,4.272,10.846,6.408
		c1.014,0.599,1.377,0.412,1.492-0.84c0.059-0.635,0.02-1.278,0.02-1.918c-0.004-9.116-0.01-18.232-0.01-27.348
		c0-0.718-0.02-1.445,0.08-2.153c0.104-0.745,0.486-1.474,1.283-1.548c1.344-0.126,2.707-0.111,4.059-0.061
		c0.656,0.025,0.898,0.673,1.012,1.199c0.133,0.614,0.096,1.269,0.098,1.906c0.006,5.917,0.002,11.834,0.002,17.752
		C283.328,139.041,283.33,139.041,283.332,139.041z"/>
	<path style="fill-rule:evenodd;clip-rule:evenodd;fill:#FFFFFF;" d="M121.777,159.554c0.523-0.855,0.945-1.484,1.522-2.061
		c4.281-4.276,8.288-8.809,12.303-13.334c1.921-2.166,4.014-4.18,5.971-6.314c3.86-4.213,7.489-8.638,11.53-12.688
		c1.867-1.871,3.576-3.885,5.334-5.857c2.125-2.38,4.926-2.563,7.047-0.152c3.207,3.646,6.811,6.921,9.813,10.759
		c1.646,2.106,3.566,4.003,5.389,5.968c2.184,2.352,4.422,4.654,6.59,7.019c3.453,3.762,6.855,7.568,10.305,11.333
		c1,1.092,2.063,2.13,3.143,3.145c0.617,0.58,1.156,1.191,0.859,2.063c-0.295,0.861-1.16,0.661-1.848,0.773
		c-3.225,0.528-5.658-0.735-7.705-3.172c-2.34-2.787-4.781-5.491-7.23-8.183c-3.33-3.658-6.846-7.158-10.033-10.936
		c-3.289-3.896-7.102-7.298-10.295-11.274c-1.346-1.674-2.453-2.25-4.396-0.04c-4.182,4.761-8.447,9.449-12.697,14.151
		c-1.055,1.166-2.236,2.22-3.25,3.419c-1.05,1.242-0.706,2.044,0.883,2.18c1.031,0.088,2.076,0.041,3.115,0.041
		c6.555-0.001,13.113,0.092,19.666-0.057c2.465-0.056,3.557,1.414,4.629,3.118c0.439,0.697,0.188,1.26-0.654,1.378
		c-0.707,0.099-1.432,0.109-2.148,0.107c-8.631-0.031-17.266,0.137-25.895-0.207c-0.639-0.025-1.289,0.073-1.917-0.013
		c-2.7-0.369-4.663,0.738-6.23,2.87c-0.879,1.194-1.969,2.23-2.896,3.393C130.27,160.005,126.1,161.291,121.777,159.554z"/>
	<path style="fill-rule:evenodd;clip-rule:evenodd;fill:#FFFFFF;" d="M104.387,139.275c0-6.071-0.007-12.142,0.003-18.213
		c0.005-2.625,0.311-2.915,2.872-2.882c3.373,0.043,3.542,0.129,3.553,3.489c0.037,11.583,0.014,23.167,0.008,34.75
		c0,0.397-0.057,0.796-0.097,1.192c-0.257,2.59-0.258,2.587-2.81,2.532c-0.316-0.007-0.635,0.045-0.952,0.056
		c-1.961,0.066-2.553-0.446-2.563-2.47c-0.03-6.151-0.011-12.303-0.011-18.454C104.389,139.275,104.388,139.275,104.387,139.275z"/>
</g>
</svg>
